<svg width="1440" height="1024" viewBox="0 0 1440 1024" fill="none" xmlns="http://www.w3.org/2000/svg" xmlns:xlink="http://www.w3.org/1999/xlink">
<rect width="1440" height="1024" fill="url(#pattern0_656_409)" fill-opacity="0.4"/>
<defs>
<pattern id="pattern0_656_409" patternUnits="userSpaceOnUse" patternTransform="matrix(204 0 0 162 0 0)" preserveAspectRatio="none" viewBox="0 0 102 81" width="1" height="1">
<g id="pattern0_656_409_inner">
<g clip-path="url(#clip0_656_409)">
<rect width="102" height="81" fill="#2A2B2B"/>
<g clip-path="url(#clip1_656_409)">
<path d="M14.6205 1.66202C14.8103 1.71512 14.9878 1.80512 15.1428 1.92685C15.2978 2.04859 15.4273 2.19968 15.5239 2.37149C15.6204 2.5433 15.6822 2.73246 15.7057 2.92816C15.7291 3.12386 15.7137 3.32226 15.6605 3.51202L11.2295 19.299C11.1221 19.6821 10.8669 20.0069 10.52 20.2018C10.1732 20.3968 9.76307 20.4459 9.37997 20.3385C8.99686 20.2311 8.67212 19.9759 8.47717 19.6291C8.28223 19.2822 8.23306 18.8721 8.34047 18.489L12.7715 2.70002C12.8247 2.5103 12.9148 2.33292 13.0365 2.17802C13.1583 2.02312 13.3094 1.89373 13.4812 1.79725C13.653 1.70076 13.8421 1.63907 14.0378 1.61569C14.2334 1.59232 14.4318 1.60772 14.6215 1.66102L14.6205 1.66202ZM7.56047 5.69702C7.84137 5.97827 7.99915 6.35952 7.99915 6.75702C7.99915 7.15452 7.84137 7.53577 7.56047 7.81702L4.38047 11L7.56247 14.182C7.84373 14.4634 8.00169 14.845 8.0016 15.2429C8.0015 15.6407 7.84336 16.0223 7.56197 16.3035C7.28057 16.5848 6.89897 16.7427 6.50112 16.7426C6.10326 16.7426 5.72173 16.5844 5.44047 16.303L1.19747 12.06C0.916568 11.7788 0.758789 11.3975 0.758789 11C0.758789 10.6025 0.916568 10.2213 1.19747 9.94002L5.43947 5.69702C5.57877 5.55763 5.74417 5.44705 5.92622 5.37161C6.10827 5.29617 6.30341 5.25734 6.50047 5.25734C6.69753 5.25734 6.89267 5.29617 7.07472 5.37161C7.25677 5.44705 7.42117 5.55763 7.56047 5.69702ZM16.4405 7.81702C16.2931 7.67969 16.1749 7.51409 16.0929 7.33009C16.0109 7.1461 15.9668 6.94747 15.9633 6.74606C15.9597 6.54466 15.9968 6.3446 16.0722 6.15782C16.1477 5.97105 16.26 5.80138 16.4024 5.65894C16.5448 5.5165 16.7145 5.40421 16.9013 5.32877C17.0881 5.25333 17.2881 5.21628 17.4895 5.21983C17.6909 5.22339 17.8895 5.26747 18.0735 5.34946C18.2575 5.43144 18.4231 5.54964 18.5605 5.69702L22.8035 9.93902C23.0847 10.2203 23.2426 10.6018 23.2426 10.9995C23.2426 11.3973 23.0847 11.7787 22.8035 12.06L18.5615 16.303C18.4222 16.4424 18.2569 16.5529 18.0749 16.6283C17.8929 16.7038 17.6978 16.7426 17.5008 16.7426C17.3038 16.7427 17.1087 16.7039 16.9267 16.6286C16.7447 16.5532 16.5793 16.4428 16.44 16.3035C16.3006 16.1643 16.1901 15.9989 16.1147 15.8169C16.0392 15.6349 16.0004 15.4399 16.0003 15.2429C16.0003 15.0459 16.0391 14.8508 16.1144 14.6688C16.1897 14.4867 16.3002 14.3214 16.4395 14.182L19.6215 11L16.4405 7.81702Z" fill="black"/>
</g>
<g clip-path="url(#clip2_656_409)">
<path d="M24.4259 30.3525L14.908 27.0872C14.6791 27.0087 14.4307 27.1302 14.3522 27.3591L11.0869 36.8771C11.0084 37.106 11.1299 37.3543 11.3588 37.4328L20.8767 40.6981C21.1056 40.7766 21.354 40.6552 21.4325 40.4263L24.6978 30.9083C24.7763 30.6794 24.6548 30.431 24.4259 30.3525ZM17.8795 33.9764L14.6823 35.2067C14.5955 35.2405 14.5098 35.1576 14.5399 35.0697L14.8181 34.2588C14.8283 34.2291 14.8527 34.2042 14.8827 34.1928L16.7117 33.4876L15.7008 31.8082C15.6921 31.7947 15.6866 31.7794 15.6848 31.7635C15.683 31.7476 15.6849 31.7315 15.6903 31.7164L15.9685 30.9056C15.9987 30.8176 16.1172 30.8048 16.165 30.8848L17.9341 33.8174C17.9703 33.8761 17.9441 33.9524 17.8795 33.9764ZM19.8162 36.8798C19.7967 36.9367 19.7367 36.9681 19.6837 36.95L17.2913 36.1292C17.2383 36.111 17.2103 36.0494 17.2298 35.9925L17.4428 35.3717C17.4623 35.3148 17.5222 35.2834 17.5752 35.3016L19.9677 36.1223C20.0207 36.1405 20.0487 36.2021 20.0292 36.259L19.8162 36.8798Z" fill="black"/>
</g>
<g clip-path="url(#clip3_656_409)">
<path fill-rule="evenodd" clip-rule="evenodd" d="M30.1985 56.8197L17.7033 47.5584L3.49308 53.8807L2.00687 67.3854L3.94075 68.8187L8.35447 67.5746C8.94845 67.4069 9.47886 67.0657 9.87776 66.5948C10.2767 66.1238 10.5259 65.5445 10.5936 64.931L11.7583 54.3474L13.8126 54.5735L12.6478 65.1571C12.5351 66.1797 12.1197 67.1455 11.4547 67.9306C10.7897 68.7156 9.90544 69.2843 8.91524 69.5637L6.04 70.3741L14.5021 76.6467L28.7121 70.3265L30.1985 56.8197ZM15.4147 58.9081C15.5346 57.8185 16.0825 56.8211 16.9377 56.1354C17.793 55.4497 18.8857 55.1318 19.9753 55.2517L22.3727 55.5156C24.4516 55.7444 25.9528 57.6145 25.7237 59.6954L25.686 60.0385L23.6317 59.8124L23.6695 59.4694C23.6942 59.2446 23.6744 59.0172 23.6113 58.8002C23.5481 58.5831 23.4429 58.3806 23.3014 58.2042C23.16 58.0278 22.9853 57.881 22.7871 57.7722C22.589 57.6633 22.3713 57.5946 22.1466 57.5698L19.7493 57.306C19.2045 57.246 18.6581 57.405 18.2305 57.7478C17.8028 58.0907 17.5289 58.5894 17.4689 59.1342C17.409 59.679 17.5679 60.2253 17.9108 60.653C18.2536 61.0806 18.7523 61.3546 19.2971 61.4145L21.3514 61.6406C22.441 61.7605 23.4384 62.3084 24.1241 63.1637C24.8098 64.019 25.1277 65.1116 25.0078 66.2013C24.8878 67.2909 24.34 68.2883 23.4847 68.974C22.6294 69.6597 21.5367 69.9776 20.4471 69.8577L18.3928 69.6316C17.3032 69.5117 16.3058 68.9638 15.6201 68.1085C14.9344 67.2532 14.6165 66.1606 14.7364 65.0709L16.7907 65.297C16.7308 65.8418 16.8897 66.3881 17.2325 66.8158C17.5754 67.2434 18.0741 67.5174 18.6189 67.5773L20.6732 67.8034C21.218 67.8634 21.7643 67.7044 22.192 67.3616C22.6196 67.0187 22.8935 66.52 22.9535 65.9752C23.0135 65.4304 22.8545 64.8841 22.5117 64.4564C22.1688 64.0288 21.6701 63.7548 21.1253 63.6949L19.071 63.4688C17.9814 63.3489 16.984 62.801 16.2983 61.9457C15.6126 61.0904 15.2948 59.9978 15.4147 58.9081Z" fill="black"/>
</g>
<g clip-path="url(#clip4_656_409)">
<path fill-rule="evenodd" clip-rule="evenodd" d="M33.5982 22.269C32.6941 22.6273 31.9694 23.33 31.5835 24.2226C31.1976 25.1152 31.1821 26.1246 31.5404 27.0286L36.2685 38.9592C36.6268 39.8633 37.3295 40.588 38.2221 40.9739C39.1147 41.3598 40.1241 41.3753 41.0281 41.0171L52.9587 36.2889C53.8628 35.9306 54.5875 35.2279 54.9734 34.3353C55.3593 33.4427 55.3749 32.4333 55.0166 31.5293L50.2884 19.5987C49.9302 18.6946 49.2274 17.9699 48.3348 17.584C47.4422 17.1981 46.4328 17.1826 45.5288 17.5408L33.5982 22.269ZM37.1429 23.7641C37.0541 23.7567 36.9649 23.7699 36.8821 23.8027C36.7993 23.8355 36.7252 23.887 36.6657 23.9532L34.7153 26.1352C34.6447 26.2147 34.5974 26.3122 34.5787 26.4169C34.56 26.5216 34.5706 26.6294 34.6092 26.7284L38.107 35.5545C38.1833 35.7471 38.3576 35.8832 38.5626 35.9104L44.5178 36.7204C44.7158 36.7474 44.9144 36.6687 45.0402 36.5134L48.8238 31.8438C48.8874 31.7647 48.929 31.6703 48.9445 31.57C48.9599 31.4697 48.9487 31.3671 48.9119 31.2725L47.8359 28.5574L49.5515 26.6391C49.6222 26.5594 49.6695 26.4618 49.6882 26.3569C49.7068 26.2521 49.6961 26.1441 49.6573 26.045L48.4516 23.0027C48.412 22.9038 48.3458 22.8179 48.2604 22.7543C48.175 22.6907 48.0737 22.6519 47.9676 22.6423L45.0507 22.3903C44.9621 22.383 44.873 22.3962 44.7904 22.429C44.7078 22.4617 44.6338 22.5131 44.5743 22.5791L42.6222 24.7617C42.5517 24.8414 42.5046 24.9391 42.4861 25.0438C42.4676 25.1486 42.4784 25.2564 42.5173 25.3555L43.5997 28.0867L42.5347 29.4002L40.5442 24.3774C40.5047 24.2786 40.4387 24.1926 40.3534 24.129C40.2682 24.0653 40.167 24.0265 40.061 24.0167L37.1429 23.7641ZM44.657 27.647L46.298 27.7894L45.5638 25.9368L43.9231 25.7952L44.657 27.647ZM47.3632 27.3673L46.629 25.5146L47.7273 24.2876L48.4612 26.1394L47.3632 27.3673ZM45.73 24.8011L46.7276 23.6859L45.2369 23.5569L44.2393 24.6721L45.73 24.8011ZM41.5943 32.3789L44.5084 28.7846L46.0472 28.9182L43.134 32.5122L41.5943 32.3789ZM40.4213 33.4275L42.9854 33.6498L43.7 35.453L39.0481 34.8217L36.015 27.1682L37.6557 27.3098L39.9377 33.068C40.0177 33.2699 40.2049 33.4088 40.4213 33.4275ZM44.0435 33.2098L44.7652 35.0309L47.7225 31.384L47.0005 29.562L44.0435 33.2098ZM37.8219 26.1741L36.3311 26.045L37.3288 24.9299L38.8195 25.0589L37.8219 26.1741ZM38.7209 26.8876L39.8192 25.6606L41.7061 30.4217L40.6419 31.7348L38.7209 26.8876Z" fill="black"/>
</g>
<path d="M48.9611 49.7621C50.1953 48.8177 51.6496 48.2627 52.8545 48.9586C54.0594 49.6537 54.3064 51.1911 54.1053 52.7317C54.081 52.9227 54.0491 53.1185 54.0095 53.3191C54.2032 53.3856 54.3887 53.4558 54.5661 53.5297C56.0006 54.1266 57.2087 55.109 57.2087 56.5C57.2087 57.891 56.0006 58.8734 54.5661 59.4703C54.3882 59.5442 54.2027 59.6144 54.0095 59.6809C54.0491 59.8815 54.081 60.0773 54.1053 60.2683C54.3064 61.8089 54.0594 63.3463 52.8545 64.0414C51.6504 64.7373 50.1945 64.1823 48.9611 63.2387C48.8036 63.1176 48.6499 62.9917 48.5003 62.861C48.3457 62.9956 48.1921 63.1215 48.0396 63.2387C46.8062 64.1823 45.3511 64.7373 44.1462 64.0414C42.942 63.3463 42.695 61.8089 42.8953 60.2683C42.9214 60.0716 42.9536 59.8757 42.9919 59.6809C42.7977 59.6144 42.6119 59.5442 42.4346 59.4703C41.0001 58.8734 39.792 57.891 39.792 56.5C39.792 55.109 41.0001 54.1266 42.4346 53.5297C42.6124 53.4558 42.7982 53.3856 42.9919 53.3191C42.9523 53.1185 42.9201 52.9227 42.8953 52.7317C42.695 51.1911 42.942 49.6537 44.1462 48.9586C45.3503 48.2635 46.8062 48.8177 48.0396 49.7621C48.1926 49.8782 48.3462 50.0038 48.5003 50.139C48.655 50.0044 48.8085 49.8788 48.9611 49.7621ZM44.5262 60.0918C44.5024 60.2227 44.4824 60.3496 44.466 60.4726C44.2815 61.892 44.6291 62.4913 44.9386 62.6702C45.249 62.8492 45.9417 62.8507 47.0785 61.9815C47.1805 61.9029 47.2805 61.8219 47.3785 61.7385C46.9882 61.2956 46.6207 60.8332 46.2773 60.353C45.6896 60.2957 45.1051 60.2085 44.5262 60.0918ZM52.4769 60.0918C51.9301 60.2031 51.3464 60.2902 50.7257 60.353C50.361 60.8597 49.9939 61.3215 49.6245 61.7385C49.7253 61.8245 49.825 61.9052 49.9237 61.9807C51.0606 62.8507 51.7541 62.8492 52.0636 62.6702C52.374 62.4913 52.7207 61.892 52.5362 60.4726C52.5195 60.3452 52.4997 60.2182 52.4769 60.0918ZM48.5003 54.125C48.0311 54.125 47.582 54.1385 47.1529 54.1654C46.9149 54.5243 46.6784 54.9069 46.4436 55.3133C46.2186 55.7025 46.0056 56.0986 45.8047 56.5008C45.9963 56.8861 46.2092 57.2816 46.4436 57.6875C46.6779 58.0934 46.9144 58.476 47.1529 58.8354C48.0507 58.8882 48.9508 58.8882 49.8485 58.8354C50.0866 58.4765 50.3227 58.0939 50.5571 57.6875C50.7823 57.2982 50.9956 56.9022 51.1967 56.5C50.9956 56.0978 50.7823 55.7017 50.5571 55.3125C50.3326 54.923 50.0963 54.5405 49.8485 54.1654C49.3996 54.1382 48.95 54.1248 48.5003 54.125ZM43.402 54.8533C43.2811 54.8966 43.1612 54.9428 43.0426 54.9919C41.7205 55.5413 41.3753 56.1422 41.3753 56.5C41.3753 56.8578 41.7213 57.4587 43.0426 58.0081C43.1576 58.0556 43.2774 58.1018 43.402 58.1467C43.5906 57.5871 43.8075 57.0375 44.052 56.5C43.8078 55.9625 43.5903 55.4129 43.402 54.8533ZM53.5987 54.8533C53.4103 55.4129 53.1937 55.9625 52.9495 56.5C53.206 57.0676 53.4229 57.6186 53.5987 58.1467C53.7196 58.1034 53.8394 58.0572 53.9581 58.0081C55.2802 57.4587 55.6253 56.8578 55.6253 56.5C55.6253 56.1422 55.2802 55.5421 53.9581 54.9919C53.8394 54.9428 53.7196 54.8966 53.5987 54.8533ZM48.5003 55.3125C48.8153 55.3125 49.1173 55.4376 49.34 55.6603C49.5627 55.883 49.6878 56.1851 49.6878 56.5C49.6878 56.8149 49.5627 57.117 49.34 57.3397C49.1173 57.5624 48.8153 57.6875 48.5003 57.6875C48.1854 57.6875 47.8833 57.5624 47.6606 57.3397C47.4379 57.117 47.3128 56.8149 47.3128 56.5C47.3128 56.1851 47.4379 55.883 47.6606 55.6603C47.8833 55.4376 48.1854 55.3125 48.5003 55.3125ZM44.9378 50.3297C44.6283 50.5087 44.2807 51.108 44.4652 52.5274C44.481 52.6509 44.5011 52.7778 44.5254 52.9082C45.0716 52.7968 45.6553 52.7098 46.2765 52.647C46.6199 52.1668 46.9874 51.7044 47.3777 51.2615C47.2797 51.1784 47.1797 51.0976 47.0777 51.0193C45.9409 50.1492 45.2482 50.1508 44.9378 50.3297ZM52.0628 50.3297C51.7533 50.1508 51.0598 50.15 49.923 51.0193C49.8213 51.0976 49.7215 51.1784 49.6237 51.2615C49.9926 51.678 50.3615 52.1411 50.7241 52.647C51.3458 52.7098 51.9298 52.7968 52.4761 52.9082C52.4989 52.782 52.5187 52.6553 52.5355 52.5282C52.7207 51.1087 52.3732 50.5087 52.0628 50.3297Z" fill="black"/>
<g clip-path="url(#clip5_656_409)">
<mask id="mask0_656_409" style="mask-type:luminance" maskUnits="userSpaceOnUse" x="53" y="-1" width="22" height="22">
<path d="M57.6797 -1L74.0229 3.67953L69.3434 20.0228L53.0002 15.3433L57.6797 -1Z" fill="white"/>
</mask>
<g mask="url(#mask0_656_409)">
<path d="M56.2033 4.74416C56.2033 4.74416 55.8888 4.33952 56.4769 4.08941L57.8785 3.40173C57.8785 3.40173 58.2934 3.15434 58.5461 3.54572L66.5653 14.346L65.4863 18.1144C65.4863 18.1144 65.3119 18.7055 64.5795 18.4251L56.2033 4.74416Z" fill="black"/>
<path d="M58.1554 7.93125L54.8114 9.60559C54.8114 9.60559 54.4805 9.73189 54.6482 10.1756L55.5537 11.6579C55.5537 11.6579 55.7551 12.0582 56.2895 11.8207L59.7115 10.4737L58.1554 7.93125ZM62.7967 9.28155L68.7248 6.92507L69.7662 3.16717C69.7662 3.16717 69.7928 2.28918 68.9796 2.51756L60.8177 6.61059L62.7967 9.28155Z" fill="black"/>
<path d="M64.5769 18.4297C64.7754 18.8018 65.1445 18.8044 65.1445 18.8044L69.4675 18.0034C70.0472 17.8084 70.0977 17.3749 70.0977 17.3749L73.3197 6.12186C73.4613 5.62748 73.0097 5.31324 73.0097 5.31324L70.1878 2.77598C69.5995 2.12347 68.979 2.51756 68.979 2.51756C68.979 2.51756 69.7081 2.25109 69.7656 3.16717L65.5053 18.0463C65.476 18.1485 65.4256 18.2423 65.3567 18.3206C65.2198 18.4722 64.9855 18.5827 64.5556 18.386L64.5769 18.4297Z" fill="black"/>
</g>
</g>
<path d="M67.3729 35.8755C66.5997 35.3515 65.8478 34.7968 65.119 34.2127C65.1149 34.2093 65.11 34.2071 65.1048 34.206C65.0996 34.2049 65.0943 34.2051 65.0892 34.2066C65.0841 34.208 65.0794 34.2107 65.0756 34.2143C65.0717 34.2179 65.0688 34.2225 65.067 34.2275C64.7549 35.108 64.4075 35.9757 64.0259 36.8285C59.6024 47.6381 69.3295 51.3153 69.3295 51.3153L69.4068 51.3421C69.7307 52.247 70.2587 53.5295 70.2587 53.5295L70.8627 53.3577C70.8627 53.3577 70.6384 51.9951 70.4369 51.0564L70.4885 50.9856C70.4885 50.9856 76.8234 42.74 67.3741 35.8762M69.8718 51.0217C69.8718 51.0217 69.4246 50.8162 69.2836 50.6899L69.2783 50.6748L66.9777 40.9305C66.9773 40.925 66.9788 40.9195 66.982 40.915C66.9852 40.9104 66.9898 40.9071 66.9951 40.9056C67.0004 40.9041 67.0061 40.9045 67.0111 40.9067C67.0162 40.9088 67.0204 40.9127 67.0229 40.9176L70.194 50.4144L70.1986 50.4307C70.1453 50.6123 69.8718 51.0217 69.8718 51.0217Z" fill="black"/>
<g clip-path="url(#clip6_656_409)">
<path d="M84.3076 55.9382C82.2759 55.8462 80.9755 57.3173 80.9755 57.3173C74.4147 57.3958 72.7577 63.0778 72.7185 63.1957L72.4808 63.9048C70.3073 72.319 76.2077 75.6157 76.2077 75.6157C76.3879 75.7029 76.5671 75.5524 76.5671 75.5524C77.0463 75.2553 76.8086 75.0445 76.8086 75.0445C75.4382 73.3751 75.2801 69.4248 75.2791 69.3913C74.6658 68.8815 74.0831 68.1282 74.2144 67.1469C74.2144 67.1469 74.2949 66.6581 74.7741 66.9581C74.7741 66.9581 75.9107 67.5753 76.8086 67.7535C76.8077 67.7535 77.2648 67.7947 77.2878 67.9231C77.2878 67.9231 77.6462 69.6021 76.5403 70.1465C77.2542 70.5653 77.9442 70.9611 77.9442 70.9611C78.0631 72.1714 78.7205 76.0594 78.7205 76.0594C78.7818 76.8232 79.5887 76.9736 79.5887 76.9736C80.0516 77.1385 83.5371 77.0331 83.5371 77.0331C84.5088 76.9909 84.5548 76.1198 84.5548 76.1198C84.5692 75.5975 84.5836 72.6506 84.5836 72.6506C84.6756 72.0996 85.3177 72.1714 85.3177 72.1714C85.9914 72.1427 85.977 72.6065 85.977 72.6065C85.9607 73.1001 86.0201 75.9569 86.0201 75.9569C86.0489 76.7791 86.7686 77.035 86.7686 77.035C87.2362 77.035 87.5621 77.0311 88.0767 77.035C88.3182 77.0369 89.4883 77.035 89.4883 77.035C90.0154 76.7408 90.808 76.1063 90.808 76.1063C96.4315 71.4009 94.7707 64.7022 94.7707 64.7022C93.9743 60.635 89.0504 59.8875 89.0504 59.8875C88.4926 58.152 87.4758 57.3173 87.4758 57.3173C86.3047 56.3446 85.2305 55.9804 84.3076 55.9382ZM89.105 60.0332C89.105 60.0332 90.8731 62.9848 87.45 67.5657C87.4509 67.5666 84.6325 71.5102 79.561 68.7377C80.5998 69.2389 84.8663 70.9534 87.587 66.8402C87.587 66.8402 90.1093 63.5464 89.105 60.0332ZM78.4234 63.4985C78.4234 63.4985 79.6654 63.533 79.7085 65.2427C79.7085 65.2427 78.731 62.6858 76.5738 65.051C76.5738 65.051 76.961 63.3941 78.4234 63.4985Z" fill="black"/>
</g>
<path d="M96.81 25.25C96.75 25.21 96.25 24.82 95.17 24.82C94.89 24.82 94.61 24.85 94.33 24.9C94.12 23.5 92.95 22.79 92.9 22.76L92.61 22.59L92.43 22.86C92.19 23.22 92 23.63 91.92 24.05C91.72 24.85 91.84 25.61 92.25 26.26C91.76 26.54 90.96 26.61 90.79 26.61H77.62C77.28 26.61 77 26.89 77 27.24C77 28.39 77.18 29.54 77.58 30.62C78.03 31.81 78.71 32.69 79.58 33.23C80.56 33.83 82.17 34.17 84 34.17C84.79 34.17 85.61 34.1 86.42 33.95C87.54 33.75 88.62 33.36 89.61 32.79C90.4299 32.3212 91.1638 31.7158 91.78 31C92.83 29.83 93.45 28.5 93.9 27.35H94.09C95.23 27.35 95.94 26.89 96.33 26.5C96.59 26.26 96.78 25.97 96.92 25.63L97 25.39L96.81 25.25ZM78.85 26.24H80.61C80.69 26.24 80.77 26.17 80.77 26.08V24.5C80.77 24.42 80.7 24.34 80.61 24.34H78.85C78.76 24.34 78.69 24.41 78.69 24.5V26.08C78.7 26.17 78.76 26.24 78.85 26.24ZM81.28 26.24H83.04C83.12 26.24 83.2 26.17 83.2 26.08V24.5C83.2 24.42 83.13 24.34 83.04 24.34H81.28C81.19 24.34 81.12 24.41 81.12 24.5V26.08C81.13 26.17 81.19 26.24 81.28 26.24ZM83.75 26.24H85.5C85.6 26.24 85.67 26.17 85.67 26.08V24.5C85.67 24.42 85.61 24.34 85.5 24.34H83.75C83.67 24.34 83.6 24.41 83.6 24.5V26.08C83.6 26.17 83.66 26.24 83.75 26.24ZM86.19 26.24H87.96C88.04 26.24 88.11 26.17 88.11 26.08V24.5C88.11 24.42 88.05 24.34 87.96 24.34H86.19C86.11 24.34 86.04 24.41 86.04 24.5V26.08C86.04 26.17 86.11 26.24 86.19 26.24ZM81.28 24H83.04C83.12 24 83.2 23.91 83.2 23.82V22.25C83.2 22.16 83.13 22.09 83.04 22.09H81.28C81.19 22.09 81.12 22.15 81.12 22.25V23.82C81.13 23.91 81.19 24 81.28 24ZM83.75 24H85.5C85.6 24 85.67 23.91 85.67 23.82V22.25C85.67 22.16 85.61 22.09 85.5 22.09H83.75C83.67 22.09 83.6 22.15 83.6 22.25V23.82C83.6 23.91 83.66 24 83.75 24ZM86.19 24H87.96C88.04 24 88.11 23.91 88.11 23.82V22.25C88.11 22.16 88.04 22.09 87.96 22.09H86.19C86.11 22.09 86.04 22.15 86.04 22.25V23.82C86.04 23.91 86.11 24 86.19 24ZM86.19 21.72H87.96C88.04 21.72 88.11 21.65 88.11 21.56V20C88.11 19.9 88.04 19.83 87.96 19.83H86.19C86.11 19.83 86.04 19.89 86.04 20V21.56C86.04 21.64 86.11 21.72 86.19 21.72ZM88.65 26.24H90.41C90.5 26.24 90.57 26.17 90.57 26.08V24.5C90.57 24.42 90.5 24.34 90.41 24.34H88.65C88.57 24.34 88.5 24.41 88.5 24.5V26.08C88.5 26.17 88.57 26.24 88.65 26.24Z" fill="black"/>
</g>
</g>
</pattern><clipPath id="clip0_656_409">
<rect width="102" height="81" fill="white"/>
</clipPath>
<clipPath id="clip1_656_409">
<rect width="24" height="24" fill="white" transform="translate(0 -1)"/>
</clipPath>
<clipPath id="clip2_656_409">
<rect width="14" height="14" fill="white" transform="translate(13.543 25) rotate(18.9352)"/>
</clipPath>
<clipPath id="clip3_656_409">
<rect width="31" height="31" fill="white" transform="translate(2.3916 45) rotate(6.28022)"/>
</clipPath>
<clipPath id="clip4_656_409">
<rect width="22" height="22" fill="white" transform="translate(29 23.1054) rotate(-21.6186)"/>
</clipPath>
<clipPath id="clip5_656_409">
<rect width="17" height="17" fill="white" transform="translate(57.6797 -1) rotate(15.9779)"/>
</clipPath>
<clipPath id="clip6_656_409">
<rect width="23" height="23" fill="white" transform="translate(72 55)"/>
</clipPath>
</defs>
</svg>
