<svg width="16" height="16" viewBox="0 0 16 16" fill="none" xmlns="http://www.w3.org/2000/svg">
<path d="M4.82924 2.89558L4.13933 3.61948L4.86323 4.30938L4.17333 5.03328L4.89723 5.72319L4.20732 6.44709L6.37902 8.5168L7.06893 7.7929L6.34503 7.103L7.03493 6.37909L6.31103 5.68919L7.00094 4.96529L4.82924 2.89558ZM7.58886 -2.46763e-05L6.20905 1.44778L6.93295 2.13768L7.62285 1.41378L8.34675 2.10369L9.03666 1.37978L7.58886 -2.46763e-05ZM6.93295 2.13768L6.24304 2.86158L7.69084 4.24139L9.07065 2.79359L8.34675 2.10369L7.65685 2.82759L6.93295 2.13768ZM7.69084 4.24139L7.00094 4.96529L7.72484 5.65519L8.41474 4.93129L7.69084 4.24139ZM10.4845 2.75959L8.41474 4.93129L9.13864 5.6212L8.44874 6.3451L9.17264 7.035L8.48273 7.7589L9.20663 8.44881L11.2763 6.27711L10.5524 5.5872L11.2424 4.8633L10.5185 4.1734L11.2084 3.4495L10.4845 2.75959ZM7.75883 7.069L7.06893 7.7929L7.79283 8.4828L8.48273 7.7589L7.75883 7.069ZM9.20663 8.44881L8.51673 9.17271L9.24063 9.86261L9.93053 9.13871L9.20663 8.44881ZM6.37902 8.5168L5.68912 9.2407L6.41302 9.9306L7.10292 9.2067L6.37902 8.5168ZM9.24063 9.86261L8.55072 10.5865L9.27462 11.2764L9.96453 10.5525L9.24063 9.86261ZM6.41302 9.9306L5.72311 10.6545L6.44701 11.3444L7.13692 10.6205L6.41302 9.9306ZM7.82682 9.89661L7.13692 10.6205L7.86082 11.3104L8.55072 10.5865L7.82682 9.89661ZM9.27462 11.2764L8.58472 12.0003L9.30862 12.6902L9.99852 11.9663L9.27462 11.2764ZM6.44701 11.3444L5.75711 12.0683L6.48101 12.7582L7.17091 12.0343L6.44701 11.3444ZM6.48101 12.7582L5.7911 13.4821L7.9628 15.5518L10.0325 13.3801L9.30862 12.6902L7.92881 14.138L6.48101 12.7582ZM7.86082 11.3104L7.17091 12.0343L7.89481 12.7242L8.58472 12.0003L7.86082 11.3104Z" fill="white"/>
</svg>
